<svg width="25" height="18" viewBox="0 0 25 18" fill="none" xmlns="http://www.w3.org/2000/svg">
<path d="M18.006 7H16.746C16.3718 5.551 15.5988 4.23599 14.5146 3.2044C13.4305 2.1728 12.0787 1.46599 10.6129 1.16428C9.1471 0.862561 7.62606 0.97804 6.22262 1.49759C4.81918 2.01714 3.58961 2.91993 2.67362 4.10338C1.75763 5.28683 1.19196 6.70348 1.04088 8.19235C0.889794 9.68123 1.15936 11.1826 1.81895 12.526C2.47853 13.8693 3.50169 15.0007 4.77215 15.7916C6.04262 16.5824 7.50945 17.0011 9.00597 17H18.006C19.3321 17 20.6038 16.4732 21.5415 15.5355C22.4792 14.5979 23.006 13.3261 23.006 12C23.006 10.6739 22.4792 9.40215 21.5415 8.46447C20.6038 7.52678 19.3321 7 18.006 7Z" stroke="#DE5126" stroke-width="2" stroke-linecap="round" stroke-linejoin="round"/>
</svg>
