<svg width="28" height="28" viewBox="0 0 28 28" fill="none" xmlns="http://www.w3.org/2000/svg">
<g opacity="0.2">
<path fill-rule="evenodd" clip-rule="evenodd" d="M2.27722 13.6848C2.27722 7.38988 7.36706 2.28091 13.6639 2.28091C19.9493 2.28091 25.0506 7.38988 25.0506 13.6848C25.0506 19.9912 19.9493 25.0888 13.6639 25.0888C7.36706 25.0888 2.27722 19.9912 2.27722 13.6848ZM16.2031 15.7718L18.0478 9.93296C18.173 9.53382 17.8086 9.15749 17.4101 9.28293L11.5801 11.1076C11.341 11.1874 11.1474 11.3699 11.0791 11.6093L9.25725 17.4596C9.132 17.8473 9.50776 18.2236 9.8949 18.0982L15.7021 16.2735C15.9412 16.2051 16.1348 16.0113 16.2031 15.7718Z" fill="#200E32"/>
</g>
<g opacity="0.2">
<path fill-rule="evenodd" clip-rule="evenodd" d="M2.27722 13.6848C2.27722 7.38988 7.36706 2.28091 13.6639 2.28091C19.9493 2.28091 25.0506 7.38988 25.0506 13.6848C25.0506 19.9912 19.9493 25.0888 13.6639 25.0888C7.36706 25.0888 2.27722 19.9912 2.27722 13.6848ZM16.2031 15.7718L18.0478 9.93296C18.173 9.53382 17.8086 9.15749 17.4101 9.28293L11.5801 11.1076C11.341 11.1874 11.1474 11.3699 11.0791 11.6093L9.25725 17.4596C9.132 17.8473 9.50776 18.2236 9.8949 18.0982L15.7021 16.2735C15.9412 16.2051 16.1348 16.0113 16.2031 15.7718Z" fill="#200E32"/>
</g>
</svg>
