<svg width="188" height="83" viewBox="0 0 188 83" fill="none" xmlns="http://www.w3.org/2000/svg">
<g filter="url(#filter0_i_202_1807)">
<path d="M130 16.0516C132.474 16.0516 134.901 16.062 137.331 16.0516C139.084 16.0412 140.806 16.1436 142.521 16.5412C146.591 17.4834 149.132 19.8989 150.37 23.543C151.46 26.7494 151.568 30.0507 151.243 33.3773C151.089 35.1851 150.617 36.957 149.846 38.6223C149.27 39.833 148.508 40.9251 147.386 41.7634C147.093 41.983 147.004 42.1758 147.085 42.5601C148.738 50.3824 150.373 58.2072 151.989 66.0344C152.004 66.1875 152.004 66.3414 151.989 66.4944H144.156L140.038 45.2413H137.873V66.484H130V16.0516ZM137.883 38.3537C140.045 38.557 141.996 37.4872 142.905 35.637C143.617 34.1859 143.786 32.6354 143.789 31.0745C143.789 29.3667 143.69 27.6619 142.913 26.0654C141.947 24.0861 140.38 23.2329 137.883 23.3857V38.3537Z" fill="#523600"/>
</g>
<g filter="url(#filter1_i_202_1807)">
<path d="M103.01 40.7088C103.01 35.8735 102.981 31.0382 103.022 26.2043C103.044 23.4311 103.798 20.8401 105.516 18.538C107.184 16.3056 109.542 15.2908 112.354 15.0567C114.067 14.9086 115.756 15.036 117.375 15.6123C120.578 16.75 122.361 19.1099 123.268 22.0638C123.712 23.5187 123.942 25.024 123.951 26.5376C124.011 36.1441 124.016 45.7505 123.965 55.357C123.951 58.305 123.157 61.0693 121.085 63.3862C119.244 65.4469 116.836 66.4023 114.015 66.4868C110.925 66.5786 108.161 65.8498 106.04 63.5832C104.696 62.1302 103.795 60.3622 103.431 58.4664C103.178 57.246 103.043 56.0064 103.028 54.7629C102.983 50.0831 103.01 45.396 103.01 40.7088ZM116.171 40.814C116.171 35.9579 116.198 31.1019 116.147 26.2458C116.116 25.3043 115.941 24.3718 115.628 23.4771C115.326 22.5601 114.495 22.1512 113.484 22.1527C112.472 22.1542 111.698 22.6638 111.364 23.5349C111.054 24.299 110.884 25.1068 110.859 25.9244C110.826 35.7846 110.826 45.6448 110.859 55.5051C110.859 56.3613 111.117 57.2546 111.448 58.0605C111.846 59.0308 112.746 59.3938 113.849 59.2916C114.871 59.1908 115.493 58.5953 115.745 57.7331C115.992 56.9274 116.128 56.0948 116.149 55.2562C116.19 50.4431 116.171 45.6286 116.171 40.814V40.814Z" fill="#523600"/>
</g>
<g filter="url(#filter2_i_202_1807)">
<path d="M57.4993 16.0602H65.1358C65.7983 16.0602 66.4607 16.029 67.1232 16.0809C67.24 16.107 67.3477 16.1586 67.4367 16.2311C67.5257 16.3036 67.5933 16.3947 67.6333 16.4964C68.5508 21.7812 69.4512 27.069 70.3345 32.3597C71.1824 37.3775 72.0293 42.3957 72.875 47.4145C73.6037 51.7675 74.3125 56.1221 75.0413 60.4707C75.3443 62.2823 75.6772 64.0908 75.9886 65.9009C76.0038 66.0985 76.0038 66.2968 75.9886 66.4944H68.0904L66.5419 56.1829H64.5181C62.7245 56.1829 60.9292 56.1829 59.1356 56.1829C58.7431 56.1829 58.4963 56.2111 58.4317 56.6666C57.973 59.9306 57.4762 63.1829 56.9843 66.4855H49L57.4993 16.0602ZM59.6639 48.3922H65.4041C65.2815 47.551 65.1689 46.7602 65.0514 45.9679C64.6969 43.5861 64.3398 41.2053 63.9798 38.8255C63.6199 36.4457 63.2473 34.0679 62.8619 31.6921C62.8305 31.4992 62.6682 31.3227 62.5655 31.1372C62.428 31.3241 62.1995 31.4977 62.1664 31.6965C61.85 33.6149 61.5652 35.5362 61.277 37.4561C60.916 39.8587 60.5577 42.2602 60.2022 44.6608C60.02 45.8818 59.8477 47.1147 59.6639 48.3877V48.3922Z" fill="#523600"/>
</g>
<g filter="url(#filter3_i_202_1807)">
<path d="M24.01 51.8393L31.8484 51.1812C31.9199 52.4218 31.8711 53.615 32.089 54.7667C32.314 55.9836 32.6875 57.1738 33.2027 58.315C33.6905 59.3867 34.7636 59.8224 36.0513 59.7172C37.1894 59.6238 37.9389 59.0265 38.3454 58.112C39.3537 55.9319 39.3759 53.4769 38.4072 51.282C37.4625 49.0587 35.983 47.1244 34.5717 45.1457C32.3199 41.9856 30.0063 38.8552 27.9056 35.6107C26.4228 33.3237 25.4392 30.7906 25.192 28.1182C24.8441 24.3504 25.5399 20.7738 28.3852 17.8346C30.4062 15.7447 33.1003 14.9162 36.1033 15.0066C37.372 15.0336 38.6318 15.2069 39.8526 15.5224C43.1694 16.4221 44.9611 18.684 45.9708 21.5683C46.7073 23.6745 46.9659 25.8445 47 28.0426C46.9899 28.1322 46.9698 28.2206 46.9398 28.3064L39.1356 28.9882C39.0998 28.256 39.0771 27.5668 39.0283 26.8805C38.9389 25.6147 38.7584 24.3608 38.0788 23.2254C37.552 22.345 36.874 21.6572 35.6399 21.7625C34.4481 21.8662 33.7864 22.5732 33.4613 23.5411C32.5947 26.129 32.8564 28.6636 34.3441 30.9818C35.9049 33.4155 37.6479 35.7545 39.3486 38.1112C41.5078 41.1037 43.7076 44.0681 45.353 47.3378C46.8602 50.3334 47.278 53.4534 46.8276 56.7098C46.5512 58.7167 46.0359 60.6361 44.8571 62.3703C43.1418 64.89 40.5664 66.0758 37.3991 66.393C35.3229 66.6005 33.284 66.5086 31.2956 65.938C27.9349 64.976 25.9903 62.7646 24.9904 59.7898C24.1335 57.2271 23.9515 54.5843 24.01 51.8393Z" fill="#523600"/>
</g>
<g filter="url(#filter4_i_202_1807)">
<path d="M100 23.5976H92.5114V66.4944H84.591V23.6035H77V16.0509H100V23.5976Z" fill="#523600"/>
</g>
<g filter="url(#filter5_i_202_1807)">
<path d="M165 66.4944H157V16.0509H165V66.4944Z" fill="#523600"/>
</g>
<defs>
<filter id="filter0_i_202_1807" x="130" y="16.0509" width="22" height="54.4435" filterUnits="userSpaceOnUse" color-interpolation-filters="sRGB">
<feFlood flood-opacity="0" result="BackgroundImageFix"/>
<feBlend mode="normal" in="SourceGraphic" in2="BackgroundImageFix" result="shape"/>
<feColorMatrix in="SourceAlpha" type="matrix" values="0 0 0 0 0 0 0 0 0 0 0 0 0 0 0 0 0 0 127 0" result="hardAlpha"/>
<feOffset dy="4"/>
<feGaussianBlur stdDeviation="2"/>
<feComposite in2="hardAlpha" operator="arithmetic" k2="-1" k3="1"/>
<feColorMatrix type="matrix" values="0 0 0 0 0 0 0 0 0 0 0 0 0 0 0 0 0 0 0.25 0"/>
<feBlend mode="normal" in2="shape" result="effect1_innerShadow_202_1807"/>
</filter>
<filter id="filter1_i_202_1807" x="103" y="15" width="21" height="55.4944" filterUnits="userSpaceOnUse" color-interpolation-filters="sRGB">
<feFlood flood-opacity="0" result="BackgroundImageFix"/>
<feBlend mode="normal" in="SourceGraphic" in2="BackgroundImageFix" result="shape"/>
<feColorMatrix in="SourceAlpha" type="matrix" values="0 0 0 0 0 0 0 0 0 0 0 0 0 0 0 0 0 0 127 0" result="hardAlpha"/>
<feOffset dy="4"/>
<feGaussianBlur stdDeviation="2"/>
<feComposite in2="hardAlpha" operator="arithmetic" k2="-1" k3="1"/>
<feColorMatrix type="matrix" values="0 0 0 0 0 0 0 0 0 0 0 0 0 0 0 0 0 0 0.25 0"/>
<feBlend mode="normal" in2="shape" result="effect1_innerShadow_202_1807"/>
</filter>
<filter id="filter2_i_202_1807" x="49" y="16.0509" width="27" height="54.4435" filterUnits="userSpaceOnUse" color-interpolation-filters="sRGB">
<feFlood flood-opacity="0" result="BackgroundImageFix"/>
<feBlend mode="normal" in="SourceGraphic" in2="BackgroundImageFix" result="shape"/>
<feColorMatrix in="SourceAlpha" type="matrix" values="0 0 0 0 0 0 0 0 0 0 0 0 0 0 0 0 0 0 127 0" result="hardAlpha"/>
<feOffset dy="4"/>
<feGaussianBlur stdDeviation="2"/>
<feComposite in2="hardAlpha" operator="arithmetic" k2="-1" k3="1"/>
<feColorMatrix type="matrix" values="0 0 0 0 0 0 0 0 0 0 0 0 0 0 0 0 0 0 0.25 0"/>
<feBlend mode="normal" in2="shape" result="effect1_innerShadow_202_1807"/>
</filter>
<filter id="filter3_i_202_1807" x="24" y="15" width="23" height="55.4944" filterUnits="userSpaceOnUse" color-interpolation-filters="sRGB">
<feFlood flood-opacity="0" result="BackgroundImageFix"/>
<feBlend mode="normal" in="SourceGraphic" in2="BackgroundImageFix" result="shape"/>
<feColorMatrix in="SourceAlpha" type="matrix" values="0 0 0 0 0 0 0 0 0 0 0 0 0 0 0 0 0 0 127 0" result="hardAlpha"/>
<feOffset dy="4"/>
<feGaussianBlur stdDeviation="2"/>
<feComposite in2="hardAlpha" operator="arithmetic" k2="-1" k3="1"/>
<feColorMatrix type="matrix" values="0 0 0 0 0 0 0 0 0 0 0 0 0 0 0 0 0 0 0.25 0"/>
<feBlend mode="normal" in2="shape" result="effect1_innerShadow_202_1807"/>
</filter>
<filter id="filter4_i_202_1807" x="77" y="16.0509" width="23" height="54.4435" filterUnits="userSpaceOnUse" color-interpolation-filters="sRGB">
<feFlood flood-opacity="0" result="BackgroundImageFix"/>
<feBlend mode="normal" in="SourceGraphic" in2="BackgroundImageFix" result="shape"/>
<feColorMatrix in="SourceAlpha" type="matrix" values="0 0 0 0 0 0 0 0 0 0 0 0 0 0 0 0 0 0 127 0" result="hardAlpha"/>
<feOffset dy="4"/>
<feGaussianBlur stdDeviation="2"/>
<feComposite in2="hardAlpha" operator="arithmetic" k2="-1" k3="1"/>
<feColorMatrix type="matrix" values="0 0 0 0 0 0 0 0 0 0 0 0 0 0 0 0 0 0 0.25 0"/>
<feBlend mode="normal" in2="shape" result="effect1_innerShadow_202_1807"/>
</filter>
<filter id="filter5_i_202_1807" x="157" y="16.0509" width="8" height="54.4435" filterUnits="userSpaceOnUse" color-interpolation-filters="sRGB">
<feFlood flood-opacity="0" result="BackgroundImageFix"/>
<feBlend mode="normal" in="SourceGraphic" in2="BackgroundImageFix" result="shape"/>
<feColorMatrix in="SourceAlpha" type="matrix" values="0 0 0 0 0 0 0 0 0 0 0 0 0 0 0 0 0 0 127 0" result="hardAlpha"/>
<feOffset dy="4"/>
<feGaussianBlur stdDeviation="2"/>
<feComposite in2="hardAlpha" operator="arithmetic" k2="-1" k3="1"/>
<feColorMatrix type="matrix" values="0 0 0 0 0 0 0 0 0 0 0 0 0 0 0 0 0 0 0.25 0"/>
<feBlend mode="normal" in2="shape" result="effect1_innerShadow_202_1807"/>
</filter>
</defs>
</svg>
