<svg width="28" height="28" viewBox="0 0 28 28" fill="none" xmlns="http://www.w3.org/2000/svg">
<g opacity="0.2">
<path d="M20.9632 16.3306C20.6683 16.6168 20.5328 17.0308 20.6 17.4367L21.6122 23.0475C21.6976 23.523 21.4972 24.0043 21.0998 24.2791C20.7104 24.5642 20.1923 24.5984 19.7676 24.3703L14.7244 21.736C14.5491 21.6425 14.3544 21.5923 14.1551 21.5866H13.8465C13.7395 21.6026 13.6347 21.6368 13.5391 21.6893L8.4948 24.3361C8.24543 24.4616 7.96304 24.506 7.68634 24.4616C7.01225 24.3338 6.56248 23.6907 6.67293 23.0121L7.68634 17.4014C7.75352 16.992 7.61802 16.5757 7.32311 16.2849L3.21138 12.2936C2.86751 11.9594 2.74795 11.4577 2.90508 11.0049C3.05766 10.5533 3.44709 10.2237 3.91736 10.1496L9.57653 9.3274C10.0069 9.28292 10.385 9.02063 10.5786 8.6329L13.0722 3.51253C13.1314 3.39849 13.2077 3.29358 13.3 3.20463L13.4025 3.1248C13.456 3.0655 13.5175 3.01646 13.5858 2.97655L13.7099 2.93093L13.9035 2.8511H14.3828C14.811 2.89558 15.1879 3.15217 15.3849 3.53534L17.9116 8.6329C18.0938 9.00581 18.4479 9.26468 18.8567 9.3274L24.5158 10.1496C24.9941 10.218 25.3938 10.5488 25.552 11.0049C25.7012 11.4622 25.5725 11.964 25.2218 12.2936L20.9632 16.3306Z" fill="#200E32"/>
</g>
</svg>
