<svg width="24" height="24" viewBox="0 0 24 24" fill="none" xmlns="http://www.w3.org/2000/svg">
<path d="M12 19C15.866 19 19 15.866 19 12C19 8.13401 15.866 5 12 5C8.13401 5 5 8.13401 5 12C5 15.866 8.13401 19 12 19Z" stroke="#111111" stroke-width="2" stroke-linecap="round" stroke-linejoin="round"/>
<path d="M12 9V12L13.5 13.5" stroke="#111111" stroke-width="2" stroke-linecap="round" stroke-linejoin="round"/>
<path d="M16.51 17.35L16.16 21.18C16.1149 21.6786 15.8845 22.1423 15.5142 22.4792C15.1439 22.8162 14.6607 23.002 14.16 23H9.83C9.32932 23.002 8.8461 22.8162 8.4758 22.4792C8.1055 22.1423 7.87505 21.6786 7.83 21.18L7.48 17.35M7.49 6.65L7.84 2.82C7.8849 2.32308 8.11393 1.86089 8.48211 1.52415C8.8503 1.18742 9.33105 1.00047 9.83 1H14.18C14.6807 0.99797 15.1639 1.1838 15.5342 1.52077C15.9045 1.85775 16.1349 2.32136 16.18 2.82L16.53 6.65" stroke="#111111" stroke-width="2" stroke-linecap="round" stroke-linejoin="round"/>
</svg>
